<svg xmlns="http://www.w3.org/2000/svg" width="3426" height="3155" fill="none" viewBox="0 0 3426 3155">
  <circle cx="1712.5" cy="1577.5" r="1577.5" fill="teal"/>
  <path fill="#1E1E1C" d="M134.295 2269V973H1214.29c39.6 0 75.6 9.6 108 28.8 33.6 19.2 60 45.6 79.2 79.2 19.2 32.4 28.8 68.4 28.8 108v864c0 39.6-9.6 76.2-28.8 109.8-19.2 32.4-45.6 58.2-79.2 77.4-32.4 19.2-68.4 28.8-108 28.8H134.295Zm216-145.8h863.995c19.2 0 35.4-6.6 48.6-19.8 14.4-14.4 21.6-31.2 21.6-50.4v-864c0-19.2-7.2-35.4-21.6-48.6-13.2-14.4-29.4-21.6-48.6-21.6H350.295c-19.2 0-36 7.2-50.4 21.6-13.2 13.2-19.8 29.4-19.8 48.6v864c0 19.2 6.6 36 19.8 50.4 14.4 13.2 31.2 19.8 50.4 19.8ZM1649.87 2269V973h147.6v1296h-147.6Zm573.96 0c-39.6 0-76.2-9.6-109.8-28.8-32.4-19.2-58.2-45-77.4-77.4-19.2-33.6-28.8-70.2-28.8-109.8v-50.4h145.8v50.4c0 19.2 6.6 36 19.8 50.4 14.4 13.2 31.2 19.8 50.4 19.8h864c19.2 0 35.4-6.6 48.6-19.8 14.4-14.4 21.6-31.2 21.6-50.4v-289.8c0-19.2-7.2-35.4-21.6-48.6-13.2-13.2-29.4-19.8-48.6-19.8h-864c-39.6 0-76.2-9.6-109.8-28.8-32.4-20.4-58.2-46.8-77.4-79.2-19.2-32.4-28.8-68.4-28.8-108V1189c0-39.6 9.6-75.6 28.8-108 19.2-33.6 45-60 77.4-79.2 33.6-19.2 70.2-28.8 109.8-28.8h864c39.6 0 75.6 9.6 108 28.8 33.6 19.2 60 45.6 79.2 79.2 19.2 32.4 28.8 68.4 28.8 108v50.4h-145.8V1189c0-19.2-7.2-35.4-21.6-48.6-13.2-14.4-29.4-21.6-48.6-21.6h-864c-19.2 0-36 7.2-50.4 21.6-13.2 13.2-19.8 29.4-19.8 48.6v289.8c0 19.2 6.6 35.4 19.8 48.6 14.4 13.2 31.2 19.8 50.4 19.8h864c39.6 0 75.6 10.2 108 30.6 33.6 19.2 60 45 79.2 77.4 19.2 32.4 28.8 68.4 28.8 108V2053c0 39.6-9.6 76.2-28.8 109.8-19.2 32.4-45.6 58.2-79.2 77.4-32.4 19.2-68.4 28.8-108 28.8h-864Z"/>
</svg>
